<?xml version="1.0" standalone="no"?>
<!DOCTYPE svg PUBLIC "-//W3C//DTD SVG 20010904//EN"
 "http://www.w3.org/TR/2001/REC-SVG-20010904/DTD/svg10.dtd">
<svg version="1.0" xmlns="http://www.w3.org/2000/svg"
 width="197.000000pt" height="197.000000pt" viewBox="0 0 197.000000 197.000000"
 preserveAspectRatio="xMidYMid meet">
<metadata>
Created by potrace 1.14, written by Peter Selinger 2001-2017
</metadata>
<g transform="translate(0.000000,197.000000) scale(0.100000,-0.100000)"
fill="#000000" stroke="none">
<path d="M1350 1469 c-163 -25 -198 -34 -220 -54 -11 -10 -22 -26 -25 -35 -7
-21 -30 -29 -107 -36 -38 -4 -58 -2 -58 5 0 7 -8 7 -26 1 -22 -9 -30 -7 -49
14 -54 58 -150 39 -200 -40 -21 -33 -33 -43 -44 -38 -119 52 -238 74 -386 70
-142 -3 -165 -13 -165 -67 0 -43 26 -136 42 -145 6 -4 23 -7 39 -6 30 1 32 -4
45 -93 3 -22 11 -78 19 -125 36 -221 39 -250 26 -251 -46 -5 -69 -21 -86 -55
-13 -28 -14 -41 -5 -69 18 -53 48 -67 131 -59 63 6 72 10 98 41 l28 34 -3 142
c-2 78 -6 153 -8 167 -3 14 -2 31 2 37 4 6 45 21 92 33 47 12 106 32 133 45
26 13 48 23 48 22 1 -1 3 -47 5 -102 8 -257 12 -274 53 -275 11 0 90 20 99 25
1 1 9 41 18 88 15 80 29 112 30 70 1 -22 14 -117 17 -120 3 -3 131 97 137 107
3 5 5 48 5 96 l-1 86 78 37 77 37 5 -25 c3 -15 8 -55 11 -91 4 -36 10 -79 13
-97 l7 -32 70 58 71 58 -1 87 c-1 112 16 134 40 52 22 -74 55 -113 113 -130
150 -44 272 71 272 255 0 69 -30 156 -65 189 -18 17 -36 23 -69 23 -36 0 -49
5 -60 23 -34 51 -110 64 -246 43z m54 -21 c-3 -4 -20 -8 -37 -8 -18 -1 -60 -7
-94 -14 -35 -7 -63 -10 -63 -7 0 4 39 14 88 22 103 18 113 18 106 7z m-231
-48 c-41 -25 -42 -40 -3 -40 23 0 30 -4 30 -20 0 -11 -7 -20 -16 -20 -8 0 -13
4 -10 9 3 5 -1 11 -9 15 -8 3 -17 0 -21 -6 -5 -7 -2 -8 6 -3 8 5 11 4 6 -3
-12 -21 -34 -1 -32 29 2 32 30 58 61 59 16 0 13 -4 -12 -20z m315 -27 c-3 -18
-145 -96 -159 -87 -12 7 -5 84 9 93 8 5 45 9 84 10 62 2 69 0 66 -16z m167 -1
c-11 -2 -32 -7 -47 -12 -16 -5 -28 -5 -28 -1 0 12 62 29 80 22 11 -4 10 -6 -5
-9z m-900 -9 c-40 -22 -62 -51 -75 -101 -6 -24 -15 -40 -19 -37 -13 7 7 74 31
105 22 28 56 49 78 49 8 0 2 -7 -15 -16z m85 -12 c0 -5 -9 -19 -21 -32 l-20
-24 17 33 c19 33 24 38 24 23z m-650 -19 c0 -4 -17 -9 -37 -10 -21 -2 -39 -5
-42 -8 -3 -2 2 -30 10 -62 l14 -57 39 0 c45 0 50 -8 60 -100 4 -33 9 -67 11
-75 2 -8 6 -31 9 -50 3 -19 14 -97 25 -173 25 -164 24 -154 9 -139 -12 12 -14
19 -22 86 -15 115 -22 163 -30 196 -3 14 -8 41 -10 60 -4 38 -15 112 -21 145
-2 11 -4 23 -4 27 -1 4 -18 6 -38 5 -32 -2 -39 2 -51 26 -8 16 -15 50 -15 75
l-2 47 40 6 c22 3 43 7 48 8 4 0 7 -3 7 -7z m40 4 c0 -2 -7 -6 -15 -10 -8 -3
-15 -1 -15 4 0 6 7 10 15 10 8 0 15 -2 15 -4z m114 -4 c3 -5 -8 -8 -24 -7 -40
2 -46 10 -10 13 16 1 31 -2 34 -6z m766 -1 c0 -4 -6 -8 -12 -8 -26 0 -133 -15
-139 -18 -3 -3 -26 -6 -51 -9 -52 -4 -107 -30 -115 -54 -9 -25 -34 -52 -50
-52 -8 0 -13 12 -13 33 0 40 29 72 58 63 11 -4 40 2 65 13 26 11 49 16 52 11
3 -5 15 -6 28 -1 12 5 47 11 76 15 30 4 56 8 57 9 7 7 44 5 44 -2z m-666 -9
c3 -5 -1 -9 -9 -9 -8 0 -12 4 -9 9 3 4 7 8 9 8 2 0 6 -4 9 -8z m41 -20 c-3 -3
-11 0 -18 7 -9 10 -8 11 6 5 10 -3 15 -9 12 -12z m1145 -102 c5 -19 7 -44 5
-55 -2 -11 -4 -23 -4 -27 -1 -6 -35 -21 -56 -23 -30 -4 -65 44 -59 83 1 6 2
21 3 31 0 11 13 34 28 51 l27 33 23 -29 c13 -16 28 -45 33 -64z m-475 60 c4
-6 1 -17 -5 -26 -13 -15 -130 -74 -148 -74 -6 0 -9 21 -9 48 2 46 3 47 37 52
69 11 118 11 125 0z m-637 -86 c67 -15 122 -39 122 -54 0 -27 -124 -82 -247
-109 l-43 -9 -1 42 c0 22 -2 67 -4 99 l-4 58 57 -6 c31 -4 85 -13 120 -21z
m924 -23 c-6 -67 27 -137 74 -157 71 -30 147 -8 191 55 14 20 23 32 21 26 -26
-68 -79 -108 -147 -111 -97 -4 -160 62 -161 168 l0 47 -46 -26 c-25 -14 -48
-23 -51 -20 -4 5 102 65 118 67 3 0 4 -22 1 -49z m-557 -54 c3 -37 8 -76 10
-85 1 -9 6 -44 10 -77 4 -33 8 -69 10 -80 1 -11 3 -33 4 -49 l1 -28 36 27 c19
15 37 25 40 22 5 -5 -75 -67 -87 -67 -3 0 -10 28 -13 63 -11 95 -17 140 -23
167 -2 14 -5 44 -6 68 0 35 -3 41 -18 37 -15 -5 -15 -2 3 35 11 22 22 40 23
38 2 -2 6 -34 10 -71z m355 -72 c7 -63 15 -115 18 -115 3 0 20 11 39 26 18 14
33 21 33 16 0 -8 -83 -72 -94 -72 -2 0 -4 8 -4 18 0 17 -12 133 -18 162 -1 8
-3 25 -3 38 -1 23 -1 23 -28 5 -40 -27 -185 -95 -190 -89 -3 3 41 28 98 56 57
28 108 57 114 65 5 7 12 12 15 10 4 -2 12 -56 20 -120z m501 92 c-10 -9 -11
-8 -5 6 3 10 9 15 12 12 3 -3 0 -11 -7 -18z m-978 -50 c23 6 22 -4 -3 -17 -15
-8 -27 -7 -48 4 -27 14 -31 13 -63 -8 -46 -31 -106 -53 -203 -76 -94 -23 -104
-24 -89 -9 6 6 28 13 49 16 64 8 194 53 242 83 41 25 49 27 71 16 15 -7 34
-11 44 -9z m-37 -197 c0 -93 4 -173 8 -177 4 -4 20 -2 37 4 20 8 29 8 27 1 -6
-16 -77 -38 -85 -25 -3 5 -8 80 -10 166 -2 86 -5 164 -7 173 -3 15 5 24 24 27
3 1 5 -75 6 -169z m101 -42 c-3 -7 -5 -2 -5 12 0 14 2 19 5 13 2 -7 2 -19 0
-25z m-637 -218 c-6 -12 -9 -36 -5 -53 6 -32 6 -32 -9 -7 -13 23 -10 50 10 82
12 19 15 -1 4 -22z m43 -22 c4 -22 5 -22 11 -3 5 13 17 21 35 22 23 2 30 -3
34 -22 2 -14 0 -25 -4 -25 -5 0 -9 5 -9 11 0 6 -7 3 -16 -6 -12 -12 -19 -13
-24 -5 -6 9 -13 9 -29 1 -19 -11 -21 -9 -21 19 0 35 17 41 23 8z m121 -33 c-9
-14 -19 -23 -22 -20 -5 4 26 45 35 45 2 0 -4 -11 -13 -25z"/>
<path d="M265 580 c3 -5 8 -10 11 -10 2 0 4 5 4 10 0 6 -5 10 -11 10 -5 0 -7
-4 -4 -10z"/>
</g>
</svg>
